<svg width="24" height="24" viewBox="0 0 24 24" fill="none" xmlns="http://www.w3.org/2000/svg">
<rect width="24" height="24" fill="#1E1E1E"/>
<g id="Dashboard" clip-path="url(#clip0_0_1)">
<rect width="1440" height="3007" transform="translate(-1060 -2958)" fill="white"/>
<g id="Frame 87" clip-path="url(#clip1_0_1)">
<path id="Polygon 2" d="M380.533 48.9378L-1062.5 48.9377L-1062.5 -133.001L380.533 -437.5L380.533 48.9378Z" fill="url(#paint0_linear_0_1)"/>
<g id="Frame 88">
<g id="Frame 79">
<g id="Frame 90">
<g id="uil:youtube">
<path id="Vector" d="M23 9.70998C23.0495 8.27864 22.7365 6.858 22.09 5.57998C21.6514 5.05558 21.0427 4.70169 20.37 4.57998C17.5875 4.32751 14.7936 4.22403 12 4.26998C9.21667 4.22194 6.43274 4.32208 3.66003 4.56998C3.11185 4.6697 2.60454 4.92683 2.20003 5.30998C1.30003 6.13998 1.20003 7.55998 1.10003 8.75998C0.954939 10.9175 0.954939 13.0824 1.10003 15.24C1.12896 15.9154 1.22952 16.5858 1.40003 17.24C1.5206 17.745 1.76455 18.2123 2.11003 18.6C2.51729 19.0034 3.03641 19.2752 3.60003 19.38C5.75594 19.6461 7.92824 19.7564 10.1 19.71C13.6 19.76 16.67 19.71 20.3 19.43C20.8775 19.3316 21.4112 19.0595 21.83 18.65C22.11 18.3699 22.3191 18.0271 22.44 17.65C22.7977 16.5526 22.9733 15.4041 22.96 14.25C23 13.69 23 10.31 23 9.70998ZM9.74003 14.85V8.65998L15.66 11.77C14 12.69 11.81 13.73 9.74003 14.85Z" fill="white"/>
</g>
</g>
</g>
<path d="M-838 -24.5H157V-25.5H-838V-24.5Z" fill="white" mask="url(#path-2-inside-1_0_1)"/>
</g>
</g>
</g>
<defs>
<linearGradient id="paint0_linear_0_1" x1="89.2103" y1="301.647" x2="-620.454" y2="-516.455" gradientUnits="userSpaceOnUse">
<stop stop-color="#7A3199"/>
<stop offset="1" stop-color="#161033"/>
</linearGradient>
<clipPath id="clip0_0_1">
<rect width="1440" height="3007" fill="white" transform="translate(-1060 -2958)"/>
</clipPath>
<clipPath id="clip1_0_1">
<rect width="1440" height="493" fill="white" transform="translate(-1060 -444)"/>
</clipPath>
</defs>
</svg>
